<svg xmlns="http://www.w3.org/2000/svg" width="616" height="616" viewBox="0 0 162.983 162.983"><path d="M1.058 64.558v8.467a33.867 33.867 0 0033.867 33.867V64.558z" fill="#f57f17"/><path d="M94.192 13.758a67.733 67.733 0 00-67.734 67.734 67.733 67.733 0 0067.734 67.733h67.733v-16.933H94.192a50.8 50.8 0 01-50.8-50.8 50.8 50.8 0 0150.8-50.8 50.8 50.8 0 0150.8 50.8v16.933h-16.934V81.492a33.867 33.867 0 00-33.866-33.867 33.867 33.867 0 00-33.867 33.867 33.867 33.867 0 0033.867 33.866h67.733V81.492a67.733 67.733 0 00-23.06-50.8h23.06V13.758zm0 50.8a16.933 16.933 0 0116.933 16.934v16.933H94.192a16.933 16.933 0 01-16.934-16.933 16.933 16.933 0 0116.934-16.934z" fill="#004d40"/></svg>