<svg xmlns="http://www.w3.org/2000/svg" width="608" height="608" viewBox="0 0 16 16"><path d="M9.263 1.263a6.737 6.737 0 00-6.518 5.053H0v.842a3.368 3.368 0 003.014 3.345 6.737 6.737 0 006.249 4.234H16v-1.684H9.263A5.053 5.053 0 014.21 8a5.053 5.053 0 015.053-5.053A5.053 5.053 0 0114.316 8v1.684h-1.684V8a3.368 3.368 0 00-3.369-3.368A3.368 3.368 0 005.895 8a3.368 3.368 0 003.368 3.368H16V8a6.737 6.737 0 00-2.294-5.053H16V1.263zm0 5.053A1.684 1.684 0 0110.947 8v1.684H9.263A1.684 1.684 0 017.58 8a1.684 1.684 0 011.683-1.684z"/></svg>